<svg xmlns="http://www.w3.org/2000/svg" xmlns:xlink="http://www.w3.org/1999/xlink" width="24" height="36" version="1.1" viewBox="0 0 24 36"><title>Group</title><desc>Created with Sketch.</desc><g id="Page-1" fill="none" fill-rule="evenodd" stroke="none" stroke-width="1"><g id="Group-2" transform="translate(-17.000000, -7.000000)"><g id="Logo"><g id="Group-4" transform="translate(17.000000, 8.000000)"><g id="Group"><g id="Logo" transform="translate(0.559947, 0.000000)"><polygon id="Fill-1" fill="#FF9100" points="11.275 6.655 2.536 6.603 6.828 33.716 7.764 33.716 16.347 33.716 17.283 33.716 21.575 6.603"/><polygon id="Fill-2" fill="#FD0" points="11.275 6.655 2.536 6.603 6.828 33.716 7.764 33.716 14.162 33.716 15.099 33.716 19.39 6.603"/><polygon id="Fill-3" fill="#FFF" points=".039 6.603 22.589 6.603 22.589 4.102 .039 4.102"/><polygon id="Stroke-4" stroke="#000" stroke-width="1.17" points=".039 6.603 22.589 6.603 22.589 4.102 .039 4.102"/><polygon id="Fill-6" fill="#FFF" points="18.22 .039 12.836 .039 9.637 .039 4.253 .039 2.614 3.79 9.637 3.79 12.836 3.79 19.858 3.79"/><g id="Group-11" stroke-width="1.17" transform="translate(0.936350, 0.000000)"><polygon id="Stroke-7" stroke="#050505" points="17.283 .039 11.899 .039 8.7 .039 3.316 .039 1.678 3.79 8.7 3.79 11.899 3.79 18.922 3.79"/><polygon id="Stroke-9" stroke="#000" points="10.339 6.655 .039 6.603 4.331 33.716 5.267 33.716 15.411 33.716 16.347 33.716 20.639 6.603"/></g><polygon id="Fill-12" fill="#FFF" points="21.887 14.26 11.606 14.26 10.866 14.26 .585 14.26 2.508 25.043 11.236 24.949 19.964 25.043"/><polygon id="Stroke-13" stroke="#000" stroke-width="1.17" points="21.887 14.26 11.606 14.26 10.866 14.26 .585 14.26 2.508 25.043 11.236 24.949 19.964 25.043"/></g></g></g></g></g></g></svg>