<?xml version="1.0" encoding="utf-8"?>
<!-- Generator: Adobe Illustrator 25.2.1, SVG Export Plug-In . SVG Version: 6.00 Build 0)  -->
<svg version="1.1" id="Layer_1" focusable="false" xmlns="http://www.w3.org/2000/svg" xmlns:xlink="http://www.w3.org/1999/xlink"
	 x="0px" y="0px" viewBox="0 0 192 512" style="enable-background:new 0 0 192 512;" xml:space="preserve">
<style type="text/css">
	.st0{fill:#6E7482;}
</style>
<path class="st0" d="M20,424.2h20V279.8H20c-11,0-20-9-20-20V212c0-11,9-20,20-20h112c11,0,20,9,20,20v212.2h20c11,0,20,9,20,20V492
	c0,11-9,20-20,20H20c-11,0-20-9-20-20v-47.8C0,433.2,9,424.2,20,424.2z M96,0C56.2,0,24,32.2,24,72s32.2,72,72,72s72-32.2,72-72
	S135.8,0,96,0z"/>
</svg>
