<?xml version="1.0" standalone="no"?>
<!DOCTYPE svg PUBLIC "-//W3C//DTD SVG 20010904//EN"
 "http://www.w3.org/TR/2001/REC-SVG-20010904/DTD/svg10.dtd">
<svg version="1.0" xmlns="http://www.w3.org/2000/svg"
 width="330.000000pt" height="330.000000pt" viewBox="0 0 330.000000 330.000000"
 preserveAspectRatio="xMidYMid meet">
<metadata>
Created by potrace 1.15, written by Peter Selinger 2001-2017
</metadata>
<g transform="translate(0.000000,330.000000) scale(0.100000,-0.100000)"
fill="#000000" stroke="none">
<path d="M1480 3239 c-190 -33 -351 -62 -357 -64 -8 -3 -13 -23 -13 -54 l0
-49 38 9 c20 5 73 9 116 9 118 0 186 -40 186 -109 0 -24 -52 -224 -105 -409
-25 -84 -45 -159 -45 -166 0 -8 -88 -47 -227 -101 -126 -48 -229 -88 -231 -90
-2 -2 3 -25 11 -51 10 -32 20 -48 28 -46 11 3 257 96 362 137 15 6 16 4 8 -16
-6 -13 -92 -312 -192 -664 -100 -352 -237 -835 -305 -1073 -68 -239 -124 -438
-124 -443 0 -5 75 -9 173 -9 l173 0 18 58 c96 313 174 532 240 667 238 491
631 980 845 1053 71 25 132 9 152 -40 25 -60 2 -158 -194 -848 -150 -524 -194
-710 -184 -781 7 -50 47 -113 90 -139 25 -16 50 -20 114 -20 74 0 88 3 148 34
140 74 310 239 428 416 21 30 37 60 37 66 0 7 -16 21 -35 32 l-34 21 -52 -67
c-147 -188 -270 -277 -317 -230 -25 25 -20 46 178 718 198 676 194 658 194
815 1 116 -1 135 -21 171 -53 100 -128 144 -243 144 -267 0 -568 -269 -967
-861 -48 -71 -88 -128 -89 -126 -2 2 10 45 25 97 16 52 52 176 81 275 28 99
73 254 100 345 27 91 71 246 100 345 28 99 55 189 59 200 7 15 89 52 340 149
182 71 329 131 327 135 -2 3 -9 25 -15 49 -7 23 -16 42 -21 42 -6 0 -106 -37
-222 -81 -335 -128 -367 -139 -363 -126 2 7 29 95 59 197 30 102 77 262 105
357 28 95 51 175 51 178 0 13 -108 -1 -430 -56z"/>
</g>
</svg>
